<svg width="312" height="194" viewBox="0 0 312 194" fill="none" xmlns="http://www.w3.org/2000/svg">
<path d="M309.631 78.6655C304.701 56.7011 293.308 38.7338 275.687 24.7968C264.517 15.9621 252.077 9.78107 238.077 6.92881C234.832 6.26703 231.554 5.92952 228.217 6.2207C229.75 6.96189 230.85 8.39795 232.66 8.68252C234.272 8.94061 235.846 9.70827 236.8 10.9723C238.077 12.6664 239.788 13.0767 241.618 13.4672C241.96 13.54 242.296 13.6525 242.638 13.7517C261.108 19.4099 276.201 29.9719 288.022 45.292C297.856 58.0379 303.47 72.5506 305.564 88.4333C306.966 99.0482 306.242 109.617 303.74 120.046C301.68 128.63 298.409 136.73 293.735 144.201C287.555 154.088 279.814 162.572 270.303 169.349C263.596 174.127 256.375 177.925 248.661 180.784C247.786 181.109 247.549 180.996 247.568 180.003C247.68 174.855 247.687 169.706 247.805 164.558C248.062 153.44 246.719 142.527 243.593 131.852C242.895 129.483 242.092 127.141 241.375 124.778C241.269 124.434 240.914 124.037 241.539 123.68C243.296 122.674 243.303 122.634 242.803 120.728C242.5 119.57 242.54 118.71 243.803 118.008C245.62 116.996 245.949 115.46 244.87 113.601C244.238 112.509 244.29 111.668 245.113 110.735C246.114 109.59 246.798 108.306 246.726 106.685C246.693 105.871 246.43 105.6 245.627 105.587C243.468 105.547 241.328 105.295 239.301 104.488C235.075 102.807 231.778 100.147 230.461 95.5673C229.691 92.8738 230.481 91.0738 232.916 89.6841C233.193 89.5252 233.331 89.3664 233.357 89.0686C233.601 86.3685 234.325 83.8075 235.786 81.2927C233.232 81.9611 231.514 83.3575 230.31 85.6141C229.928 84.6347 229.704 83.7744 229.105 82.9074C228.921 84.4494 228.757 85.8193 228.559 87.4406C227.401 85.1178 226.084 83.2383 224.215 81.8089C225.077 83.3575 225.663 85.0053 226.143 86.7325C225.92 86.6333 225.827 86.4281 225.683 86.2627C223.642 83.92 221.378 81.8089 218.903 79.9295C214.289 76.4353 209.234 73.6889 204.06 71.1543C203.297 70.7837 202.125 70.3999 202.211 69.5793C202.31 68.6461 203.554 68.5403 204.416 68.3814C207.885 67.7329 211.347 67.938 214.809 68.5204C216.889 68.8712 218.87 69.5859 220.858 70.3006C220.167 69.6322 219.476 68.9903 218.706 68.4675C217.731 67.8123 217.455 67.0182 217.705 65.8601C217.982 64.5498 218.344 63.2725 218.804 62.0151C219.66 59.6592 220.957 57.4687 221.352 54.9474C221.727 52.5914 222.464 51.9032 224.88 51.6451C225.966 51.526 227.065 51.4466 228.144 51.2811C229.119 51.1289 230.007 50.7054 230.238 49.6531C230.468 48.6009 229.777 47.9061 229.033 47.2641C228.691 46.9729 227.815 46.8406 228.19 46.2648C228.585 45.6494 229.244 46.2185 229.757 46.4568C229.895 46.5229 230.033 46.609 230.139 46.7215C230.435 47.0325 230.665 46.9928 230.869 46.6354C231.955 44.7758 233.226 42.9758 232.666 40.6133C232.383 39.4088 232.607 38.4493 233.937 38.0125C234.299 37.8934 234.641 37.6485 234.924 37.3904C235.707 36.6823 235.457 35.372 234.483 34.9617C233.028 34.3396 232.403 33.069 232.785 31.4212C233.608 31.9969 233.522 33.1352 234.299 33.8036C234.569 32.8903 235.332 32.3278 235.385 31.3484C235.47 29.8263 235.924 28.3307 235.819 26.7821C235.786 26.2924 236.069 26.0012 236.398 25.6968C237.517 24.6578 238.083 23.3541 238.044 21.8122C237.998 20.1577 237.833 18.5165 237.511 16.8952C236.866 13.6458 234.009 11.0715 231.014 11.0583C230.317 11.0583 229.711 10.9326 229.125 10.5818C229.079 10.5487 228.993 10.5818 228.908 10.5818C228.967 10.6811 229.04 10.7737 229.086 10.8796C229.132 10.9921 229.329 11.098 229.099 11.2833C227.19 10.1517 225.117 9.56268 222.872 9.58915C220.674 9.61562 218.567 10.0855 216.198 10.9656C217.086 10.0656 217.988 9.86048 218.837 9.24503C216.77 9.33768 214.921 9.5693 213.117 10.1517C211.715 10.6017 210.294 10.3833 208.549 10.1384C210.129 9.43694 211.485 9.70165 213.032 9.59577C212.15 9.10605 211.36 9.35091 210.61 9.0134C214.243 7.04131 219.278 7.08763 226.631 9.13914C226.143 8.62957 225.748 8.24574 225.248 7.94133C222.879 6.48541 220.266 5.90305 217.541 5.79055C216.836 5.76408 216.422 5.57216 216.086 4.90377C215.513 3.77213 214.638 2.85888 213.585 2.13754C209.129 -0.92649 204.554 -0.383833 200.006 1.80665C196.524 3.48095 194.213 6.37953 192.259 9.63548C188.796 15.4128 189.751 20.7997 195.049 24.9093C195.589 25.3262 195.773 25.6836 195.615 26.3718C195.168 28.3505 195.181 30.3359 195.615 32.3344C196.412 36.0338 198.38 39.1243 200.914 41.7714C203.869 44.8553 204.383 48.3825 203.659 52.3466C203.192 54.9275 201.862 56.807 199.545 58.0312C198.011 58.8452 196.425 59.4739 194.747 59.8842C192.068 60.5394 189.33 60.6916 186.598 60.8306C181.596 61.0754 178.008 63.3652 175.869 67.9513C175.066 69.6719 174.507 71.4587 174.072 73.2984C173.908 73.9933 173.638 74.3308 172.854 74.4036C171.459 74.5426 170.228 75.0257 170.097 76.7331C170.077 77.0176 169.912 77.097 169.675 77.2029C167.062 78.3743 166.411 79.8037 167.306 82.517C167.49 83.0729 167.483 83.556 167.286 84.1053C166.351 86.7325 166.852 88.4995 169.254 89.9355C170.511 90.6833 170.676 91.5238 170.498 92.8076C169.925 96.9305 169.498 101.08 168.912 105.203C168.405 108.816 168.221 112.568 166.522 115.844C163.047 122.548 161.671 129.728 161.118 137.153C160.724 142.441 160.269 147.729 159.565 152.996C159.19 155.822 158.499 158.449 156.544 160.633C156.05 161.189 155.675 161.355 154.984 161.037C153.279 160.249 151.548 159.515 149.804 158.813C149.264 158.595 148.981 158.41 149.04 157.741C149.106 156.987 148.553 156.464 147.862 156.629C146.776 156.881 146.348 156.232 145.789 155.551C143.886 153.228 140.437 152.937 138.384 154.889C136.613 156.57 136.231 159.217 137.443 161.368C138.581 163.393 140.971 164.385 143.287 163.737C143.84 163.585 144.097 163.571 144.301 164.207C144.538 164.935 145.348 165.199 145.815 164.756C146.572 164.041 147.158 164.419 147.816 164.69C149.521 165.385 151.206 166.113 152.917 166.801C153.411 166.999 153.654 167.277 153.674 167.84C153.733 169.594 154.431 171.103 155.451 172.499C156.504 173.942 157.702 175.225 159.243 176.139C160.032 176.609 160.131 177.164 159.703 177.892C159.506 178.23 159.275 178.548 159.025 178.845C158.025 180.017 157.88 181.552 158.65 182.876C159.486 184.312 161.184 185.172 162.593 184.867C163.962 184.576 164.824 183.709 164.969 182.313C165.088 181.102 165.515 180.036 166.101 179.004C167.207 177.065 167.194 177.059 169.3 177.906C169.734 178.078 170.175 178.25 170.597 178.461C184.248 185.225 198.742 189.579 213.381 193.504C214.868 193.901 216.441 194.218 217.903 193.815C219.298 193.424 220.509 193.332 221.898 193.815C223.056 194.218 224.215 193.49 224.347 192.61C224.465 191.81 223.596 190.863 222.517 190.612C222.405 190.585 222.28 190.592 222.168 190.565C221.51 190.4 220.489 190.731 220.614 189.434C220.621 189.334 220.351 189.162 220.18 189.103C218.785 188.6 217.376 188.11 215.974 187.614C215.954 187.667 215.928 187.72 215.908 187.773C216.869 188.348 217.824 188.918 218.844 189.526C218.429 189.771 218.133 189.646 217.85 189.553C216.402 189.083 214.934 188.653 213.512 188.11C200.539 183.153 187.664 177.945 174.803 172.704C173.499 172.175 172.196 171.645 170.9 171.096C170.57 170.957 170.123 170.917 170.202 170.328C170.406 168.819 171.058 168.402 172.453 168.952C180.931 172.307 189.415 175.636 197.873 179.044C206.529 182.538 215.362 185.569 224.063 188.924C224.965 189.275 225.801 189.751 226.262 190.605C226.716 191.446 227.322 191.565 228.184 191.459C244.211 189.421 259.028 184.179 272.357 174.875C284.507 166.397 294.236 155.696 301.088 142.56C311.626 122.356 314.634 100.974 309.618 78.6655H309.631ZM192.107 15.2871C192.436 17.2525 192.983 19.1121 194.121 20.8327C192.357 20.0982 191.6 18.0003 192.107 15.2871ZM227.539 38.9125C225.979 37.1522 224.952 35.2198 223.965 33.2609C223.629 32.5991 223.919 32.3278 224.61 32.3609C225.479 32.4006 226.321 32.5462 227.118 32.9036C228.605 33.572 228.994 34.3926 228.631 36.0139C228.414 36.9735 228.111 37.9 227.539 38.9125ZM231.35 43.1015C231.179 43.3993 230.962 43.1743 230.758 43.1015C230.145 42.8765 229.533 42.6648 228.645 42.3537C229.658 41.917 230.455 41.7251 231.199 42.4729C231.363 42.6383 231.482 42.8832 231.35 43.1082V43.1015ZM218.554 25.2071C224.88 23.4732 233.542 26.8483 234.397 30.455C229.698 26.8152 224.307 25.4652 218.554 25.2071ZM234.832 28.5027C231.449 25.624 227.545 23.9431 223.017 22.924C228.645 21.8188 235.26 25.5314 234.832 28.5027ZM222.016 20.4291C227.118 19.304 235.01 22.3085 234.865 25.7828C230.962 23.2946 226.953 21.0908 222.016 20.4291ZM237.629 20.8725C237.998 22.2688 237.511 23.2681 236.26 23.91C236.787 22.9306 237.366 21.971 237.629 20.8725ZM232.627 13.5664C232.995 13.2355 233.45 13.1297 233.93 13.2885C235.082 13.6856 235.865 14.4532 236.379 15.8893C235.148 14.9363 234.121 14.2084 232.778 14.162C232.219 14.1422 232.364 13.7981 232.627 13.5598V13.5664ZM230.191 18.3776C231.337 17.1533 231.343 17.14 232.186 18.6555C232.686 19.5489 233.028 20.4952 233.101 21.6666C231.745 20.8923 230.501 20.1445 228.822 19.4629C229.408 19.0062 229.849 18.7415 230.185 18.3842L230.191 18.3776ZM212.499 15.6643C215.21 13.9106 217.666 11.7267 221.009 11.1774C223.563 10.7605 226.742 11.6804 228.454 13.4804C228.243 13.8245 227.888 13.6988 227.618 13.6856C224.314 13.54 221.457 14.7113 218.725 16.4981C216.007 18.2783 213.15 19.8599 209.872 20.3695C207.47 20.7401 205.113 20.7004 203.001 19.2246C202.382 18.7945 201.855 18.2783 201.362 17.3849C205.844 19.8136 210.103 19.2842 214.335 17.4974C216.777 16.465 219.022 15.0422 221.213 13.5201C218.251 14.0231 215.408 14.9495 212.505 15.6643H212.499ZM210.188 12.4017C208.154 12.8716 206.081 12.8186 204.014 12.7855C206.015 11.826 208.082 11.826 210.188 12.4017ZM198.209 8.28545C199.927 3.86478 205.456 -0.317655 210.794 2.05151C211.9 2.54122 212.848 3.18976 213.565 4.15596C213.782 4.44714 214.421 4.90377 213.947 5.15524C213.493 5.4001 212.775 6.12806 212.143 5.15524C210.616 2.81255 208.339 2.58093 205.528 2.95152C206.647 3.44124 207.641 3.62654 208.148 4.68538C205.416 3.83831 202.823 3.39492 200.592 5.41334C198.887 6.95528 198.334 8.94061 199.19 11.2304C198.229 10.5355 197.781 9.39062 198.209 8.27883V8.28545ZM198.86 25.3792C199.835 28.2777 201.342 30.594 203.6 32.3874C200.565 31.5403 198.551 28.6086 198.86 25.3792ZM201.947 23.3806C205.884 25.5049 209.714 25.2203 213.861 23.9563C210.215 26.4579 204.008 26.9939 201.947 23.3806ZM145.341 158.542C143.965 157.172 142.688 155.478 140.358 156.987C140.911 155.392 142.03 154.823 143.472 155.306C145.229 155.895 145.861 156.974 145.348 158.535L145.341 158.542ZM154.51 162.81C152.562 162.268 150.745 161.394 148.922 160.541C148.823 160.494 148.737 160.269 148.757 160.15C148.79 159.965 148.968 159.965 149.126 160.031C150.969 160.832 152.818 161.639 154.661 162.44C154.609 162.559 154.563 162.685 154.51 162.804V162.81ZM236.293 111.02C238.597 112.714 240.604 114.276 243.171 114.898C241.256 115.89 238.32 114.289 236.293 111.02ZM238.979 142.891C238.965 146.279 237.781 149.39 236.701 152.546C236.649 143.255 236.813 133.977 236.003 124.719C236.932 127.273 237.412 129.94 237.906 132.587C238.538 135.989 238.992 139.417 238.972 142.891H238.979ZM224.379 88.4995C220.285 84.2442 215.632 80.7633 210.491 77.8978C205.41 75.0654 200.065 72.8352 194.339 70.6513C203.521 70.9624 220.516 81.1207 224.379 88.4995ZM184.551 75.9786C186.499 74.7411 188.494 73.7286 190.797 73.4374C192.792 73.1859 194.687 73.7352 196.563 74.2779C203.672 76.3228 210.432 79.1022 216.382 83.6553C220.371 86.7127 223.339 90.6238 226.051 94.7797C227.572 97.1092 229.04 99.485 230.652 101.748C232.982 105.017 235.648 107.962 239.367 109.736C236.3 109.306 233.956 107.579 231.85 105.514C229.428 103.145 227.585 100.299 225.656 97.5327C223.234 94.0584 220.845 90.5576 217.62 87.434C219.068 90.7429 220.424 93.8466 221.779 96.9504C219.436 94.3496 217.238 91.6628 214.381 89.6046C217.205 93.9327 219.087 98.7239 221.227 103.423C218.581 101.444 216.764 98.7107 214.756 96.1628C212.729 93.5885 210.28 91.4775 207.681 89.4988C209.504 91.7025 210.728 94.2569 211.992 96.8114C208.753 93.893 206.423 90.2135 203.475 86.5936C204.554 87.0105 205.311 87.3017 206.061 87.5928C204.929 86.0774 203.33 85.2369 201.79 84.3237C200.236 83.4038 198.762 82.3913 197.518 81.0148C201.664 82.8876 206.219 83.3575 210.524 84.7869C207.707 83.3905 204.89 81.9876 202.073 80.5912C204.251 80.9023 206.404 81.2133 208.569 81.7295C208.062 81.4648 207.555 81.1934 207.042 80.942C204.515 79.6978 201.974 78.4735 199.466 77.2029C196.043 75.4691 192.601 75.661 189.132 77.0243C187.533 77.6529 185.973 78.414 184.294 78.8243C183.024 79.1353 181.753 79.2081 180.457 78.6059C182.425 78.639 183.182 76.8456 184.551 75.9786ZM204.258 161.963C219.43 151.984 226.367 137.272 228.388 119.583C232.298 131.316 223.267 155.22 212.992 159.932C214.763 157.999 216.185 156.206 217.448 154.254C213.545 157.662 209.293 160.461 204.264 161.97L204.258 161.963ZM205.153 114.117C202.362 112.807 198.821 109.61 197.577 106.996C205.304 114.785 207.727 115.427 215.112 111.748C208.128 110.351 202.764 106.665 199.071 100.57C202.349 104.17 206.265 106.824 210.774 108.644C215.316 110.477 219.996 111.311 224.945 110.914C223.866 111.284 222.793 111.688 221.694 112.012C218.62 112.912 215.533 113.773 212.453 114.666C209.945 115.394 207.536 115.242 205.153 114.123V114.117ZM212.321 122.846C210.741 128.345 208.628 133.553 204.185 137.478C206.917 132.614 209.036 127.405 212.321 122.846ZM217.778 134.036C218.962 129.821 220.154 125.605 221.338 121.39C220.904 125.837 219.93 130.125 217.778 134.036ZM193.99 77.064C190.936 80.0883 188.862 83.7347 185.295 85.9252C183.794 86.8516 182.227 87.5862 180.45 87.8906C183.261 86.1899 185.723 84.092 187.967 81.7229C188.941 80.6971 189.909 79.6714 190.922 78.6919C191.719 77.9177 192.667 77.4015 193.99 77.064ZM184.834 81.0346C181.964 82.9472 179.042 84.6413 175.408 83.642C173.71 83.1722 172.479 81.4714 172.571 79.7905C176.448 82.517 180.569 82.4111 184.834 81.0346ZM160.967 180.817C160.322 177.912 168.227 160.878 171.498 157.953C167.951 165.444 164.508 172.989 160.967 180.817ZM172.249 155.193C174.151 154.366 175.547 155.114 175.777 156.974C174.948 155.723 173.743 155.458 172.249 155.193ZM181.944 159.052C181.247 162.096 180.931 165.173 180.99 168.283C181.01 169.097 180.819 169.223 180.082 168.912C177.962 168.005 175.83 167.125 173.684 166.278C172.769 165.921 172.367 165.504 172.92 164.491C173.407 163.605 173.723 162.619 174.138 161.685C174.309 161.295 174.474 160.898 174.901 160.686C176.692 159.806 177.482 158.178 176.995 156.391C176.508 154.618 174.888 153.453 173.032 153.552C171.63 153.632 170.748 154.32 170.287 155.71C170.129 156.193 170.011 156.702 169.767 157.139C169.386 157.814 168.912 158.429 168.477 159.065C167.062 156.821 167.49 154.704 168.326 152.46C169.234 150.012 170.195 147.583 171.15 145.154H178.219V143.553C176.001 142.606 174.744 141.375 173.631 138.748C174.158 137.352 174.671 135.949 175.158 134.539C176.633 130.264 177.541 125.85 178.522 121.443C179.983 114.871 182.728 108.71 184.768 102.324C185.084 101.331 185.446 100.359 185.88 99.1078C186.42 100.55 186.841 101.715 187.282 102.867C189.468 108.571 192.357 113.832 196.781 118.127C197.577 118.902 197.801 119.762 197.491 120.794C197.057 122.23 197.05 123.507 198.597 124.335C199.163 124.639 198.847 125.208 198.762 125.619C198.367 127.491 197.485 129.152 196.451 130.741C194.036 134.453 191.436 138.047 189.198 141.878C186.045 147.285 183.353 152.884 181.951 159.038L181.944 159.052ZM192.897 158.866C200.197 153.665 205.377 146.723 209.609 138.967C206.048 142.984 201.921 146.16 196.708 148.033C206.107 140.211 214.098 131.482 218.725 120C218.627 120.893 218.548 121.787 218.423 122.68C218.298 123.613 218.172 124.546 217.975 125.473C215.566 136.975 209.984 146.61 201.092 154.267C198.683 156.338 195.958 157.94 192.89 158.873L192.897 158.866ZM204.844 177.561C207.338 175.55 209.701 173.71 211.696 171.44C209.965 172.539 208.214 173.578 206.331 174.378C204.429 175.186 202.481 175.861 200.361 176.066C201.362 175.424 202.356 174.782 203.356 174.147C211.353 169.064 217.56 162.255 222.398 154.148C225.261 149.35 226.9 144.062 228.441 138.735C230.099 132.978 231.218 127.127 231.514 121.132C231.528 120.834 231.442 120.496 231.837 120.159C234.542 132.276 233.483 143.817 227.585 154.79C222.109 164.974 211.511 175.437 204.844 177.561ZM221.477 173.359C224.057 169.594 226.328 165.656 228.348 161.56C230.356 157.49 231.883 153.228 233.489 148.635C233.167 155.663 227.717 167.966 221.477 173.359ZM228 180.202C227.756 180.434 227.559 180.751 227.006 180.798C227.598 179.957 228.138 179.223 228.651 178.468C232.844 172.287 236.254 165.742 237.846 158.363C238.353 156.021 238.735 153.645 238.656 151.236C238.551 147.954 239.301 144.757 239.406 141.495C239.597 135.545 238.827 129.655 238.426 123.719C239.354 125.837 239.92 128.067 240.354 130.33C241.829 137.947 242.283 145.624 241.256 153.314C239.861 163.744 235.773 172.909 228 180.202ZM236.767 176.364C241.157 165.504 242.651 153.87 243.665 142.52C246.989 149.906 242.934 170.202 236.767 176.364Z" fill="black"/>
<path d="M243.619 64.2718C243.039 65.4167 242.73 66.6476 242.375 67.852C242.026 69.03 241.69 70.2609 241.269 71.3727C240.815 72.5771 240.611 73.8544 240.077 75.0323C239.643 76.0051 239.584 77.1566 239.11 78.0964C238.517 79.2677 238.379 80.5449 237.991 81.756C237.682 82.7156 237.346 83.6818 237.036 84.6347C236.753 85.5083 236.569 86.4281 236.253 87.3017C235.898 88.2877 235.47 89.2804 235.226 90.3194C235.075 90.9547 234.851 91.4047 234.173 91.6959C232.594 92.3577 232.284 93.1055 232.712 94.7864C233.193 96.6791 234.246 98.2144 235.674 99.5048C239.926 103.37 246.949 104.309 252.175 101.742C255.085 100.312 257.178 98.135 258.244 95.0312C258.58 94.0452 258.876 92.8341 257.777 92.2716C256.395 91.5635 255.782 90.6172 255.348 89.1348C254.69 86.8914 253.893 84.6546 253.215 82.4244C252.511 80.1082 251.827 77.7522 251.116 75.4294C250.727 74.1455 250.24 72.8418 249.918 71.558C249.121 68.3682 247.772 65.3373 247.147 61.9953C250.168 62.1078 252.748 60.8901 255.256 59.4806C259.955 56.8401 264.458 61.2277 264.438 64.9667C264.431 66.6211 264.418 68.269 264.168 69.9036C263.648 73.3448 262.332 76.5544 261.213 79.817C260.212 82.7486 259.08 85.6406 257.994 88.5392C257.757 89.1745 257.797 89.5583 258.521 89.8958C260.14 90.6635 260.798 92.0797 260.805 93.8334C260.805 95.243 260.357 96.5335 259.719 97.7644C257.388 102.271 253.525 104.587 248.621 105.514C248.713 105.712 248.726 105.818 248.779 105.845C249.404 106.169 250.03 106.5 250.662 106.804C254.933 108.869 259.238 110.848 263.852 112.012C266.32 112.635 267.235 112.145 268.367 109.855C269.822 106.91 270.684 103.767 271.349 100.57C272.863 93.3437 273.238 85.998 273.429 78.6522C273.594 72.3323 275.43 66.4425 277.543 60.5923C277.767 59.9637 277.991 59.8313 278.603 60.2284C280.768 61.6247 283.111 62.6042 285.718 62.7564C286.646 62.8093 286.449 63.4645 286.185 63.7755C285.573 64.5101 285.711 65.4564 285.297 66.277C284.566 67.7131 284.375 69.4205 283.849 70.9756C283.309 72.5705 282.894 74.1985 282.308 75.7801C281.907 76.8654 281.551 78.05 281.275 79.2214C280.867 80.9618 280.222 82.6428 279.715 84.3568C279.393 85.4487 279.103 86.5737 278.734 87.6392C278.412 88.5789 278.135 89.5385 277.806 90.4782C277.28 91.9871 277.181 93.8599 275.042 94.2106C274.66 94.2768 274.653 94.6077 274.798 94.9651C275.358 96.3548 275.957 97.7114 276.931 98.8762C279.465 101.907 282.835 103.178 286.633 103.449C291.576 103.8 298.237 102.013 300.633 95.3754C300.995 94.3628 300.837 93.9658 299.916 93.6547C299.534 93.5224 298.928 93.5687 298.849 93.0856C298.599 91.5172 298.007 90.048 297.474 88.5855C297 87.2818 296.802 85.9053 296.177 84.6347C295.624 83.5097 295.288 82.2258 294.966 81.0214C294.492 79.2545 293.86 77.5471 293.32 75.8066C292.721 73.861 292.063 71.9352 291.458 69.9962C290.885 68.1498 290.444 66.2572 289.766 64.4571C289.134 62.7828 289.029 62.8292 290.47 61.8563C290.76 61.6578 291.05 61.446 291.293 61.1946C292.925 59.5137 292.682 56.4364 290.839 55.2717C290.194 54.868 289.542 54.7621 288.864 55.2121C288.18 55.6687 288.107 56.2445 288.469 56.946C288.766 57.5217 288.456 57.8261 287.943 58.018C287.416 58.2232 286.876 58.2232 286.324 58.1438C284.105 57.8327 282.308 56.6945 280.63 55.2915C280.143 54.8812 279.965 54.3783 279.978 53.7363C279.992 52.5584 279.926 51.3804 279.906 50.2024C279.886 48.6737 279.123 47.6546 277.839 46.8936C276.299 45.9803 274.647 45.4575 272.6 45.1597C275.424 44.1737 277.424 45.1663 279.333 46.9862C278.583 42.1155 274.699 41.3479 271.079 40.2493C272.626 39.8721 274.041 40.0971 275.41 40.7523C274.318 39.5611 273.093 38.7272 271.428 38.8463C271 38.8794 270.645 38.8993 270.665 38.2905C270.711 36.7816 270.033 35.5639 269.032 34.4985C268.394 33.8235 268.177 33.0823 268.328 32.1359C268.539 30.8058 267.578 29.5021 266.485 29.4293C265.412 29.3565 264.57 30.4352 264.556 31.9175C264.556 32.0764 264.53 32.2484 264.589 32.3874C265.07 33.4595 264.556 34.2205 263.918 35.0411C262.602 36.7353 262.47 38.4427 263.51 40.064C264.431 41.5001 264.346 42.8104 263.418 44.22C262.075 46.2516 261.489 48.5149 261.864 50.9503C261.989 51.751 261.825 52.062 260.963 52.115C258.428 52.2672 256.046 52.9951 253.847 54.2856C252.531 55.0533 251.228 55.854 249.898 56.6018C248.628 57.3165 247.252 57.5349 245.81 57.3166C244.606 57.1313 244.369 56.7673 244.705 55.5959C244.863 55.0467 244.632 54.6694 244.224 54.3849C243.349 53.7628 242.513 53.9746 241.743 54.5834C240.578 55.5033 240.189 57.1577 240.742 58.6533C241.223 59.9504 242.157 60.7909 243.382 61.3534C243.757 61.5255 244.237 61.6313 244.086 62.2402C243.921 62.9218 243.895 63.6696 243.586 64.2784L243.619 64.2718ZM287.475 66.9454C287.449 66.8461 287.594 66.5285 287.844 66.5947C287.962 66.6211 288.107 66.7866 288.134 66.9123C288.41 68.1763 288.851 69.4006 289.239 70.6117C289.47 71.3264 289.47 72.2264 290.194 72.8485C290.503 73.1132 290.391 73.8875 290.503 74.4235C290.852 76.0184 291.412 77.5603 291.892 79.0956C292.294 80.3795 292.735 81.703 293.281 82.9737C293.959 84.5487 294.485 86.2097 294.841 87.884C294.992 88.5921 295.394 89.1944 295.571 89.8826C295.756 90.5973 295.716 91.4775 296.315 92.1922C296.835 92.8143 296.19 92.8738 295.65 92.8077C293.05 92.4768 290.451 92.1922 287.824 92.2054C285.389 92.2187 282.986 92.4834 280.59 92.8407C280.222 92.8937 279.847 92.9135 279.294 92.9665C280.209 91.5304 280.281 90.0348 280.702 88.6517C280.913 87.9701 281.11 87.1164 281.578 86.4149C281.973 85.8193 282.065 84.9457 282.236 84.231C282.434 83.3906 282.809 82.5964 282.986 81.7427C283.269 80.4126 283.704 79.0824 284.132 77.7986C284.527 76.6074 284.935 75.3897 285.356 74.1919C285.962 72.4712 286.455 70.6977 286.876 68.9241C287.034 68.2491 287.699 67.7395 287.469 66.9454H287.475ZM279.32 51.9694C277.128 51.3076 275.213 50.123 272.975 50.1032C275.226 49.084 278.293 49.9576 279.32 51.9694ZM267.65 93.893C267.624 93.6746 267.578 93.4562 267.578 93.2378C267.578 91.279 267.578 89.3267 267.683 87.3679C268.209 89.5385 267.959 91.7157 267.65 93.893ZM267.841 77.8978C267.36 74.7875 267.255 71.6639 267.216 68.5403C267.183 65.8336 267.281 63.127 267.327 60.4203C267.327 60.1093 267.334 59.7916 267.393 59.4806C267.459 59.1364 267.571 58.6798 267.966 58.6997C268.328 58.7129 268.295 59.1695 268.315 59.4739C268.729 65.6285 268.749 71.7698 267.841 77.8978ZM267.374 34.0286C267.736 33.7242 267.861 34.2205 268.038 34.4058C268.598 34.9683 269.249 35.4978 269.23 36.6625C268.453 36.1066 267.795 35.7029 267.308 35.0875C267.025 34.7235 267.064 34.2867 267.374 34.0286ZM269.618 52.7635C270.25 50.8907 270.342 48.9914 269.684 47.1053C269.052 45.2722 267.907 44.445 266.024 44.3987C265.991 43.995 266.373 43.9884 266.564 43.942C267.663 43.6906 267.768 42.87 267.532 42.0493C267.262 41.1229 267.736 40.8846 268.519 40.6001C268.519 41.328 268.71 42.056 268.473 42.6052C268.131 43.406 268.46 43.6707 269.013 44.1009C271.968 46.3774 272.369 52.0753 269.822 54.8283C268.367 56.4033 266.004 56.3504 265.438 54.504C267.472 55.3643 268.96 54.7224 269.618 52.7635ZM267.084 52.6973C267.084 52.1944 267.275 51.751 267.887 51.7775C268.381 51.7973 268.65 52.1084 268.69 52.5716C268.591 53.0679 268.525 53.5974 267.92 53.6106C267.354 53.6238 267.084 53.2201 267.084 52.6973ZM255.387 94.1643C255.881 94.343 256.671 94.4356 256.158 95.3423C255.815 95.9379 255.796 96.6526 254.624 96.1563C250.056 94.2172 245.277 94.118 240.446 94.932C238.978 95.1768 237.504 95.4945 236.201 96.2224C235.095 96.8379 235.207 95.7526 234.858 95.3555C234.364 94.7996 234.706 94.4753 235.279 94.257C238.083 93.1783 240.999 92.6422 243.981 92.4768C244.527 92.4437 245.073 92.4768 245.626 92.4768C248.99 92.404 252.241 93.0194 255.394 94.1709L255.387 94.1643ZM244.172 69.7712C244.56 68.2226 245.383 66.8263 245.587 65.0395C246.508 67.7263 247.153 70.2741 248.009 72.7757C248.693 74.7808 249.187 76.8919 249.832 78.9302C250.069 79.6846 249.924 80.6574 250.714 81.306C251.07 81.5972 250.977 82.3251 251.096 82.8347C251.451 84.4163 252.103 85.8987 252.478 87.4804C252.682 88.3407 252.886 89.3201 253.334 90.1672C253.617 90.7098 253.367 90.8356 252.82 90.7562C247.95 90.0348 243.079 90.015 238.215 90.7429C237.997 90.776 237.609 90.8819 237.616 90.637C237.616 90.1539 237.721 89.6311 237.925 89.1877C238.452 88.023 238.768 86.7855 239.228 85.6141C239.557 84.7671 239.906 83.7876 239.998 83.0266C240.137 81.8619 241.084 81.0346 240.927 79.7905C240.841 79.1155 241.42 78.3809 241.71 77.7258C242.177 76.6735 242.25 75.5485 242.691 74.5029C243.329 72.9808 243.796 71.3793 244.198 69.7778L244.172 69.7712Z" fill="black"/>
<path d="M169.017 28.1255C174.493 23.8902 180.45 20.4357 186.815 17.7158C187.329 17.4974 187.783 17.3452 187.704 16.5842C187.526 14.8635 187.684 13.1495 188.224 11.2238C187.375 11.5149 186.736 11.7002 186.131 11.9517C177.35 15.5452 169.313 20.3166 162.066 26.3387L162.593 33.5124C164.633 31.6594 166.779 29.866 169.011 28.1322L169.017 28.1255Z" fill="black"/>
<path d="M147.381 146.306H140.535C141.424 147.815 142.345 149.304 143.313 150.779C143.537 151.123 143.787 151.368 144.208 151.474C145.459 151.798 146.512 152.44 147.288 153.493C147.512 153.79 147.776 153.989 148.164 153.996C149.408 154.015 150.178 154.79 150.764 155.756C151.073 156.265 151.435 156.563 151.995 156.742C152.62 156.947 153.219 157.245 153.818 157.529C154.259 157.735 154.614 158.145 155.095 157.49C155.529 156.894 155.115 156.649 154.812 156.318C153.443 154.81 152.166 153.215 150.961 151.567C149.704 149.833 148.506 148.079 147.367 146.312L147.381 146.306Z" fill="black"/>
<path d="M295.544 127.134C298.19 126.995 300.612 124.255 300.928 121.648C301.112 120.132 300.454 119.583 299.033 120.113C298.559 120.291 298.118 120.556 297.683 120.814C296.275 121.628 295.32 122.925 294.234 124.235C294.938 121.271 296.222 118.849 298.098 116.89C300.099 114.792 300.494 111.417 299.065 108.909C298.697 108.254 298.355 108.26 297.769 108.644C295.373 110.239 294.313 112.443 294.741 115.295C295.116 117.763 294.866 120.093 293.55 122.363C293.346 121.86 293.517 121.496 293.576 121.125C293.885 119.239 293.602 117.446 292.648 115.778C292.069 114.772 291.74 114.732 291.035 115.619C290.147 116.731 289.712 117.995 289.818 119.444C289.936 121.066 290.66 122.455 291.338 123.871C291.575 124.361 291.983 124.844 291.851 125.407C291.43 127.194 290.588 128.782 289.554 130.291C289.488 129.708 289.541 129.166 289.594 128.623C289.791 126.459 289.541 124.394 288.304 122.528C287.849 121.84 287.415 121.82 286.948 122.462C286.441 123.163 286.033 123.911 285.881 124.791C285.421 127.438 286.671 129.51 288.1 131.522C288.323 131.839 288.672 132.077 288.455 132.547C287.685 134.208 286.836 135.817 285.664 137.378C285.506 136.763 285.717 136.326 285.789 135.883C286.118 133.752 286.118 131.661 285.072 129.682C284.683 128.954 284.289 128.881 283.736 129.463C282.775 130.463 282.241 131.647 282.163 133.044C282.044 135.115 282.873 136.862 283.953 138.543C284.157 138.861 284.631 139.145 284.315 139.675C283.189 141.587 281.945 143.407 280.412 145.035C280.589 144.135 280.872 143.288 281.096 142.428C281.57 140.595 281.616 138.768 280.78 137.014C280.306 136.035 279.832 135.949 279.082 136.69C278.233 137.537 277.673 138.543 277.437 139.747C276.996 141.958 277.608 143.943 278.608 145.869C278.825 146.286 279.082 146.67 278.746 147.173C277.344 149.251 275.738 151.15 273.79 152.765C274.099 151.878 274.527 151.057 274.883 150.21C275.646 148.37 276.186 146.498 275.547 144.492C275.271 143.639 274.817 143.334 273.981 143.884C273.25 144.367 272.605 144.923 272.144 145.67C270.631 148.132 270.94 150.693 271.704 153.294C271.822 153.691 272.204 154.088 271.888 154.512C270.545 156.272 268.965 157.768 267.004 158.972C266.945 158.37 267.293 158.105 267.465 157.774C268.524 155.736 269.452 153.658 269.038 151.269C268.853 150.223 268.419 150.018 267.465 150.495C265.806 151.322 264.819 152.652 264.529 154.499C264.259 156.246 264.463 157.953 265.069 159.594C265.24 160.057 265.266 160.349 264.851 160.706C263.377 161.99 261.738 163.029 260.112 164.094C260.06 164.002 260.02 163.955 260.033 163.942C260.251 163.618 260.488 163.307 260.698 162.982C261.936 161.05 262.732 159.005 262.238 156.643C262.061 155.809 261.646 155.524 260.81 155.921C259.27 156.649 258.243 157.788 257.723 159.422C257.302 160.739 257.236 162.096 257.585 163.38C257.914 164.604 257.387 165.127 256.453 165.55C254.597 166.384 252.76 167.264 250.871 168.012C249.943 168.376 250.41 168.925 250.516 169.422C250.674 170.163 251.167 169.766 251.523 169.633C254.248 168.647 256.927 167.536 259.52 166.258C260.738 165.656 261.751 165.537 262.89 166.324C263.357 166.649 263.963 166.801 264.529 166.947C266.991 167.569 269.308 166.728 270.413 164.875C270.907 164.041 270.703 163.452 269.867 163.062C269.025 162.671 268.123 162.698 267.221 162.685C265.984 162.678 264.832 163.095 263.667 163.439C264.305 162.665 265.161 162.248 265.885 161.659C267.57 160.282 269.222 159.965 271.348 160.924C273.395 161.851 275.528 161.46 277.14 159.667C277.733 159.012 278.483 158.238 278.042 157.285C277.608 156.338 276.555 156.629 275.725 156.603C274.777 156.57 273.849 156.742 272.961 157.073C272.171 157.364 271.407 157.728 270.4 158.158C271.078 157.278 271.809 156.828 272.401 156.239C274.218 154.446 276.146 153.651 278.825 154.406C281.261 155.087 283.815 153.367 284.651 151.077C285.118 149.787 284.604 149.026 283.275 149.138C282.024 149.244 280.793 149.495 279.681 150.124C278.773 150.634 277.878 151.163 276.982 151.679C277.759 150.594 278.661 149.668 279.464 148.655C280.846 146.921 282.518 146.034 284.776 146.537C285.184 146.63 285.638 146.564 286.059 146.517C288.343 146.292 290.706 144.122 291.127 141.885C291.325 140.82 290.904 140.303 289.818 140.383C288.626 140.469 287.553 140.925 286.507 141.495C285.21 142.196 284.196 143.275 282.959 144.076C283.861 142.692 284.914 141.428 285.796 140.059C286.948 138.265 288.258 137.173 290.614 137.2C293.398 137.226 295.781 134.943 296.268 132.395C296.597 130.635 295.972 130.079 294.307 130.635C292.898 131.105 291.779 132.018 290.693 132.991C290.114 133.507 289.469 133.95 289.08 134.248C289.745 133.057 290.575 131.601 291.371 130.125C292.279 128.431 293.352 127.266 295.557 127.154L295.544 127.134Z" fill="black"/>
<path d="M183.959 23.771C176.02 27.927 169.089 33.2079 163.027 39.4485V42.3537C170.248 34.5183 178.765 28.2049 188.777 23.6519C189.205 23.46 189.619 23.3408 189.191 22.7651C188.882 22.3482 189.073 21.4084 188 21.8849C186.644 22.4871 185.282 23.0761 183.965 23.7644L183.959 23.771Z" fill="black"/>
<path d="M249.502 22.7652C253.03 24.3733 256.446 26.1932 259.665 28.3572C259.829 28.4697 260 28.5623 260.165 28.6682C260.757 29.0454 261.192 28.8138 261.573 28.3175C262.021 27.7285 261.652 27.3976 261.211 27.0733C257.183 24.1086 252.727 21.9247 248.126 20.0387C245.717 19.0526 243.275 18.1327 240.557 17.6695C241.11 19.5886 241.116 19.582 242.847 20.1644C245.105 20.9254 247.336 21.7659 249.508 22.7586L249.502 22.7652Z" fill="black"/>
<path d="M232.206 68.5998C229.402 67.7131 226.453 67.5542 223.609 66.8925C224.899 67.9778 226.328 68.7851 227.776 69.5462C230.547 71.0021 233.377 72.3521 235.707 74.5161C237.103 75.8198 237.057 75.7735 238.018 74.1588C238.538 73.2852 238.439 72.7161 237.741 72.0146C236.162 70.4197 234.338 69.2749 232.206 68.5998Z" fill="black"/>
<path d="M243.242 83.642C244.216 84.4494 245.269 85.2104 245.789 86.481C243.084 86.7391 242.222 87.0634 241.57 88.0825C244.243 87.9105 246.882 87.9171 249.62 88.0759C247.363 85.1707 245.605 81.9479 242.972 78.9368C243.269 80.3066 243.282 81.3721 242.887 82.3714C242.656 82.967 242.775 83.2582 243.249 83.642H243.242Z" fill="black"/>
<path d="M139.607 43.942L137.922 54.7753C140.496 54.9473 143.491 55.3179 146.492 56.1253C151.527 57.4753 156.569 60.0496 159.61 63.3453L154.45 32.8771H134.025V35.2859C137.06 35.9279 140.246 38.9787 139.607 43.9486V43.942Z" fill="black"/>
<path d="M156.911 130.906C157.609 127.161 158.3 124.017 159.288 121.178C160.275 118.346 161.545 115.818 162.283 113.587C163.013 111.357 163.211 109.412 163.77 106.731C164.237 104.508 164.948 101.781 165.751 99.5975L162.302 79.2412C161.96 80.1545 161.479 81.2993 160.611 82.828C159.057 85.5546 156.28 89.4657 152.607 92.629C151.429 93.6415 150.158 94.5746 148.842 95.4481L150.461 105.057L154.93 131.846C156.846 139.384 153.337 141.951 152.06 143.559V145.161H155.358C155.259 144.307 155.253 143.275 155.332 142.011C155.523 139 156.22 134.652 156.918 130.906H156.911Z" fill="black"/>
<path d="M137.053 143.559C134.499 142.117 128.918 141.792 130.669 132.17L134.98 105.057L135.329 102.271C133.65 102.92 131.985 103.462 130.28 103.859L126.522 128.001C124.606 140.191 122.375 141.475 117.109 143.559V145.161H137.053V143.559Z" fill="black"/>
<path d="M49.8926 101.364C46.2066 102.35 41.2305 103.436 36.7283 103.78C35.6686 103.859 34.6286 103.906 33.6216 103.906C33.6479 105.54 33.6611 107.215 33.6611 108.909C33.6611 125.751 32.8646 140.35 19.1409 140.35V100.186C18.1733 99.6107 17.2715 98.9952 16.4224 98.3798C14.0989 96.6856 12.1704 94.9385 10.8145 92.3245C9.45853 89.7171 8.68842 86.2428 9.14259 82.6493C9.59676 79.0559 11.2818 75.3301 13.7172 72.0278C15.3956 69.7513 17.4229 67.6667 19.1409 66.0718V37.6882H31.2652C37.4853 37.6882 41.0001 39.614 42.593 40.8978H44.1859L42.4285 32.8771H0V34.4786C1.27693 36.0801 3.19234 39.614 3.19234 45.8678V132.17C3.19234 138.424 1.27693 141.958 0 143.559V145.161H19.1474C41.6452 145.161 51.3802 126.71 51.3802 108.909C51.3802 106.308 51.1696 103.7 50.7351 101.133C50.4653 101.206 50.1822 101.285 49.8992 101.364H49.8926Z" fill="black"/>
<path d="M66.8882 110.411C73.5098 110.054 78.1173 105.507 80.3618 103.29C80.4803 103.171 80.5856 103.072 80.6909 102.959C80.9015 102.741 81.0398 102.569 81.0529 102.556C89.149 92.9201 98.9827 85.495 98.9827 85.495C103.465 81.8751 109.626 77.5537 117.11 74.119C118.163 73.6359 123.33 71.2999 130.491 69.2219C132.677 68.5866 134.539 68.1299 135.889 67.8189L131.117 98.4923C129.504 98.7901 127.865 98.9423 126.174 98.8893C122.975 98.7901 120.157 97.7312 117.939 95.3621C116.011 93.304 115.425 90.5774 117.163 88.0163C118.933 85.4089 121.329 83.6552 124.324 82.7023C125.752 82.2457 127.134 82.1993 128.484 82.967C128.569 83.0133 128.701 82.967 128.846 82.967C128.866 82.7883 128.912 82.6361 128.905 82.4839C128.721 79.8566 126.351 77.6264 123.626 77.5007C122.04 77.4279 120.546 77.7919 119.111 78.4404C116.241 79.7375 114.003 81.8023 112.114 84.2906C110.85 85.9582 110.041 87.8377 109.764 89.8693C109.488 91.9142 109.823 93.9128 110.929 95.7591C112.43 98.2607 114.701 99.7166 117.314 100.736C119.716 101.675 122.218 102.086 124.798 102.079C129.004 102.066 133.137 101.682 137.1 100.094C140.97 98.5452 144.551 96.4805 148.026 94.204C148.658 93.7871 149.31 93.39 149.889 92.9003C154.174 89.287 157.853 85.1773 160.229 80.0155C161.329 77.6331 161.803 75.1448 161.388 72.5308C160.624 67.7527 157.985 64.1725 153.983 61.6975C148.415 58.2562 133.565 55.49 113.911 60.5791C107.276 62.2931 101.411 64.5563 95.8364 66.7137C89.6821 69.0895 84.6336 71.3396 81.0463 73.0205V68.9572H81.1056V64.9468H81.0463V37.675H87.431C93.6512 37.675 97.166 39.6007 98.7589 40.8846H100.352L98.5943 32.8638H61.8989V34.4653C63.6563 35.5904 65.0912 39.6007 65.0912 45.8545V81.9148C62.4716 83.331 59.8321 84.7207 57.1729 86.0707C55.218 87.0568 53.2237 87.9766 51.2753 88.9759C50.0511 89.6046 48.8136 90.2135 47.5696 90.8024C46.8521 89.2406 46.0228 87.745 45.0881 86.3222C46.7139 85.6009 48.2805 84.7075 49.7878 83.6486C50.2419 83.3244 50.6895 82.9935 51.1437 82.6692C54.2834 80.3861 56.9821 77.7191 58.6342 74.119C59.503 72.2197 60.0164 70.1881 59.6149 68.1763C59.1015 65.5622 57.7258 63.3718 55.3826 61.896C51.4662 59.4276 47.1812 58.4746 42.6067 58.7592C39.3288 58.9643 36.1562 59.7121 33.056 60.7908C29.1725 62.1475 25.6971 64.285 22.518 66.8329C20.2866 68.6197 18.2988 70.7043 16.5546 73.0337C14.3693 75.9389 12.6119 78.9963 11.6443 82.5435C10.9795 84.9854 10.9268 87.3612 11.6838 89.7502C12.2433 91.5105 12.908 93.2576 14.2311 94.5878C16.6072 96.9834 19.2796 98.9291 22.4719 100.18C25.322 101.298 28.251 102.026 31.2656 102.284C37.8478 102.853 44.1995 101.728 50.3275 99.2997C52.3285 98.5055 54.3097 97.6651 56.2843 96.818C57.3836 96.3481 58.463 95.8319 59.5228 95.2827C62.0371 93.979 64.5647 92.7083 67.0264 91.312C72.3119 88.3274 74.9513 86.8119 78.9137 84.403C83.0276 81.9015 91.795 76.5676 99.8581 72.4911C108.415 68.163 115.306 64.6755 125.291 62.6901C138.601 60.043 145.959 62.3394 148.257 63.1401C151.666 64.3313 154.286 65.8534 156.01 66.9983C151.258 64.285 145.584 63.5571 140.147 64.0335C131.071 64.8211 124.429 66.6807 114.596 70.7241C103.695 75.2043 96.5605 80.0221 94.8162 81.2199C88.9318 85.2567 84.3638 89.3267 81.0398 92.6356V85.0251C78.1436 86.9443 74.6485 88.9164 71.1929 90.9348C69.1129 92.1458 67.0461 93.3767 65.0847 94.5216V103.866C64.7951 103.912 64.4989 103.945 64.1895 103.972C62.307 104.131 60.1941 104.197 58.18 103.085C56.8175 102.331 55.659 101.146 54.7244 99.4783C54.6322 99.3063 54.5072 99.1541 54.2307 98.7371C54.1583 99.4122 54.0596 99.8423 54.0728 100.272C54.1386 103.257 55.4682 105.633 57.5679 107.651C59.9309 109.928 63.0574 110.404 65.0847 110.464C65.8943 110.484 66.5327 110.444 66.875 110.424L66.8882 110.411ZM34.0104 86.6134C33.8063 86.6068 33.5891 86.5935 33.3917 86.5869C33.135 86.5737 32.898 86.5604 32.6545 86.5472C31.4302 86.4215 30.2059 86.1104 28.9619 85.495C29.0343 86.2362 29.4226 86.5472 29.8571 86.8251C30.4626 87.2222 31.1011 87.5134 31.7527 87.7516C32.5031 90.2068 32.9572 93.0326 33.2337 96.09C30.0808 96.679 26.8688 96.7981 23.5909 96.315C21.9914 96.0768 20.4841 95.6665 19.1413 94.9584V77.7919C24.802 77.7919 28.2642 80.2537 30.377 84.3104C30.7127 84.3369 31.0682 84.3567 31.4434 84.3633C34.0236 84.4361 37.4199 84.0589 39.7829 83.3177C40.6649 83.0398 41.4087 82.7089 42.0406 82.3648C37.2356 77.1434 30.4824 73.6028 21.5701 73.0602C21.7676 72.855 21.9651 72.6499 22.1625 72.4381C24.9599 69.5197 28.2049 67.2101 31.9699 65.7475C33.8524 65.013 35.8271 64.4968 37.7885 64.0137C41.9682 62.9747 46.1676 63.1269 50.3341 64.1063C52.2363 64.5563 54.0596 65.2512 55.6525 66.4623C56.62 67.1968 57.1598 68.1233 57.0874 69.3344C56.9557 71.6771 56.0737 73.7551 54.6981 75.6345C52.5523 78.5596 49.6759 80.6772 46.6744 82.5567C43.6993 84.4229 40.4411 85.7465 36.9263 86.3354C35.9455 86.5009 34.9714 86.6068 34.0104 86.62V86.6134ZM141.023 66.899C142.01 66.7932 143.004 66.727 143.991 66.7204L148.039 90.7098C147.888 90.8157 147.75 90.9348 147.598 91.0407C144.742 93.0326 141.773 94.8062 138.561 96.1496C137.811 96.4672 137.047 96.7584 136.29 97.0364L141.029 66.899H141.023Z" fill="black"/>
<path d="M92.2209 140.35H81.051V105.381C78.4577 107.903 73.7317 112.026 66.9916 112.39H66.906C66.6032 112.416 66.1425 112.436 65.583 112.436C65.4184 112.436 65.2539 112.436 65.0959 112.429V132.17C65.0959 138.424 63.1805 141.958 61.9102 143.559V145.161H103.391L105.148 137.14H103.549C101.956 138.424 98.4476 140.35 92.2209 140.35Z" fill="black"/>
</svg>
